<svg viewBox="0 0 217 38" xmlns="http://www.w3.org/2000/svg" fill-rule="evenodd" clip-rule="evenodd" stroke-linejoin="round" stroke-miterlimit="1.414"><g fill-rule="nonzero"><path d="M48.207 27.353c-7.079-1.92-7.129-5.51-7.079-7.684.051-3.489 4.247-6.725 9.203-6.725 4.702 0 9.657 2.074 9.707 7.837h-6.624c-.051-1.77-1.567-2.074-2.679-2.074-1.516 0-2.528.709-2.478 1.771.051.707.658 1.415 2.074 1.769l3.994 1.062c5.713 1.566 6.421 5.359 6.421 6.876 0 5.005-5.259 7.38-10.214 7.38-4.803 0-9.808-2.882-9.858-8.139h6.572c.05 1.366 1.568 2.729 3.489 2.729 1.567-.05 2.882-.758 2.882-1.97 0-1.012-.608-1.567-2.325-2.024l-3.085-.808zM71.611 37.06h-6.976V.609h6.976V19.92l5.613-6.471h8.949l-9.808 10.415L88.144 37.06h-8.646l-7.887-9.353v9.353z" fill="#3f3f3f"/><path d="M100.607 30.842c2.882 0 5.713-2.074 5.713-5.613 0-3.539-2.831-5.613-5.713-5.613-2.932 0-5.917 2.226-5.917 5.613 0 3.389 2.985 5.613 5.917 5.613m5.713 3.539c-1.518 2.274-5.055 3.133-6.875 3.133-6.017 0-12.034-4.701-12.034-12.285 0-7.583 6.017-12.285 12.034-12.285 1.516 0 5.056.504 6.875 3.135v-2.631h6.976V37.06h-6.976v-2.679zM126.79 37.06h-7.028V13.449h7.028v3.439c1.263-2.377 4.044-3.944 6.826-3.944 5.306 0 8.645 3.286 8.645 10.011V37.06h-7.029V24.471c0-3.135-1.719-4.702-4.094-4.702-2.478 0-4.348 1.213-4.348 4.803V37.06zM159.848 19.566c-2.984 0-5.462 2.226-5.462 5.613 0 3.489 2.478 5.713 5.462 5.713 2.932 0 5.46-2.327 5.46-5.713 0-3.54-2.578-5.613-5.46-5.613m5.611 17.494v-2.932c-1.163 2.173-3.994 3.437-6.926 3.437-6.067 0-11.427-4.803-11.427-12.236 0-7.583 5.36-12.385 11.427-12.385 2.932 0 5.763 1.212 6.926 3.386V.608h6.978V37.06h-6.978zM185.875 37.06h-6.976V13.449h6.976V37.06zM182.389.608c2.374 0 4.297 1.77 4.297 4.095 0 2.324-1.923 4.146-4.297 4.146-2.378 0-4.401-1.822-4.401-4.146 0-2.325 2.023-4.095 4.401-4.095M204.125 30.842c2.882 0 5.713-2.074 5.713-5.613 0-3.539-2.831-5.613-5.713-5.613-2.932 0-5.917 2.226-5.917 5.613 0 3.389 2.985 5.613 5.917 5.613m5.713 3.539c-1.518 2.274-5.055 3.133-6.875 3.133-6.017 0-12.034-4.701-12.034-12.285 0-7.583 6.017-12.285 12.034-12.285 1.516 0 5.056.504 6.875 3.135v-2.631h6.976V37.06h-6.976v-2.679z" fill="#3f3f3f"/><path d="M1.192 12.938L24.484 36.23c1.584 1.584 4.294.462 4.294-1.779V12.333a3.689 3.689 0 00-3.689-3.689H2.971c-2.241 0-3.364 2.71-1.779 4.294M1.833 35.703c3.372 3.372 9.138.984 9.138-3.786a5.353 5.353 0 00-5.353-5.353c-4.769 0-7.158 5.766-3.785 9.139" fill="#00c83c"/></g></svg>